<?xml version="1.0" encoding="UTF-8"?><svg xmlns="http://www.w3.org/2000/svg" xmlns:xlink="http://www.w3.org/1999/xlink" fill-opacity="1" color-rendering="auto" color-interpolation="auto" text-rendering="auto" stroke="black" stroke-linecap="square" width="931" stroke-miterlimit="10" shape-rendering="auto" stroke-opacity="1" fill="black" stroke-dasharray="none" font-weight="normal" stroke-width="1" height="931" font-family="'Dialog'" font-style="normal" stroke-linejoin="miter" font-size="12px" stroke-dashoffset="0" image-rendering="auto">
  <!--Generated by ySVG 2.5-->
  <defs id="genericDefs"/>
  <g>
    <defs id="defs1">
      <clipPath clipPathUnits="userSpaceOnUse" id="clipPath1">
        <path d="M0 0 L931 0 L931 931 L0 931 L0 0 Z"/>
      </clipPath>
      <clipPath clipPathUnits="userSpaceOnUse" id="clipPath2">
        <path d="M569 -79 L1500 -79 L1500 852 L569 852 L569 -79 Z"/>
      </clipPath>
    </defs>
    <g fill="white" text-rendering="geometricPrecision" shape-rendering="geometricPrecision" transform="translate(-569,79)" stroke="white">
      <rect x="569" width="931" height="931" y="-79" clip-path="url(#clipPath2)" stroke="none"/>
    </g>
    <g fill="rgb(255,204,0)" text-rendering="geometricPrecision" shape-rendering="geometricPrecision" transform="matrix(1,0,0,1,-569,79)" stroke="rgb(255,204,0)">
      <circle r="311" clip-path="url(#clipPath2)" cx="1034.9844" cy="402.5469" stroke="none"/>
    </g>
    <g text-rendering="geometricPrecision" stroke-miterlimit="1.45" shape-rendering="geometricPrecision" transform="matrix(1,0,0,1,-569,79)" stroke-linecap="butt">
      <circle fill="none" r="311" clip-path="url(#clipPath2)" cx="1034.9844" cy="402.5469"/>
      <text x="865.2988" font-size="52px" y="310.6637" clip-path="url(#clipPath2)" font-family="sans-serif" stroke="none" xml:space="preserve">ARGUMENTO</text>
    </g>
    <g fill="white" text-rendering="geometricPrecision" shape-rendering="geometricPrecision" transform="matrix(1,0,0,1,-569,79)" stroke="white">
      <rect x="893.7012" width="284.793" height="52.8906" y="358.6078" clip-path="url(#clipPath2)" stroke="none"/>
      <rect x="893.7012" y="358.6078" clip-path="url(#clipPath2)" fill="none" width="284.793" height="52.8906" stroke="black" stroke-miterlimit="1.6"/>
    </g>
    <g font-size="42px" stroke-linecap="butt" transform="matrix(1,0,0,1,-569,79)" text-rendering="geometricPrecision" font-family="sans-serif" shape-rendering="geometricPrecision" stroke-miterlimit="1.45">
      <text x="895.7012" xml:space="preserve" y="399.5932" clip-path="url(#clipPath2)" stroke="none">CONCLUSIÓN</text>
    </g>
    <g fill="white" text-rendering="geometricPrecision" shape-rendering="geometricPrecision" transform="matrix(1,0,0,1,-569,79)" stroke="white">
      <rect x="893.7466" width="282.4756" height="52.8906" y="425.4503" clip-path="url(#clipPath2)" stroke="none"/>
      <rect x="893.7466" y="425.4503" clip-path="url(#clipPath2)" fill="none" width="282.4756" height="52.8906" stroke="black" stroke-miterlimit="1.6"/>
    </g>
    <g font-size="42px" stroke-linecap="butt" transform="matrix(1,0,0,1,-569,79)" text-rendering="geometricPrecision" font-family="sans-serif" shape-rendering="geometricPrecision" stroke-miterlimit="1.45">
      <text x="895.7466" xml:space="preserve" y="466.4357" clip-path="url(#clipPath2)" stroke="none">   PREMISAS  </text>
    </g>
    <g transform="matrix(1,0,0,1,-569,79)" fill-opacity="0.2078" fill="rgb(255,102,0)" text-rendering="geometricPrecision" shape-rendering="geometricPrecision" stroke="rgb(255,102,0)" stroke-opacity="0.2078">
      <circle r="450" clip-path="url(#clipPath2)" cx="1034.9844" cy="386.9219" stroke="none"/>
    </g>
    <g text-rendering="geometricPrecision" stroke-miterlimit="1.45" shape-rendering="geometricPrecision" transform="matrix(1,0,0,1,-569,79)" stroke-linecap="butt">
      <circle fill="none" r="450" clip-path="url(#clipPath2)" cx="1034.9844" cy="386.9219"/>
      <text x="948.5166" font-size="52px" y="51.4082" clip-path="url(#clipPath2)" font-family="sans-serif" stroke="none" xml:space="preserve">TEXTO</text>
    </g>
  </g>
</svg>
