<?xml version="1.0" encoding="UTF-8"?><svg xmlns="http://www.w3.org/2000/svg" xmlns:xlink="http://www.w3.org/1999/xlink" fill-opacity="1" color-rendering="auto" color-interpolation="auto" text-rendering="auto" stroke="black" stroke-linecap="square" width="2391" stroke-miterlimit="10" shape-rendering="auto" stroke-opacity="1" fill="black" stroke-dasharray="none" font-weight="normal" stroke-width="1" height="931" font-family="'Dialog'" font-style="normal" stroke-linejoin="miter" font-size="12px" stroke-dashoffset="0" image-rendering="auto">
  <!--Generated by ySVG 2.5-->
  <defs id="genericDefs"/>
  <g>
    <defs id="defs1">
      <clipPath clipPathUnits="userSpaceOnUse" id="clipPath1">
        <path d="M0 0 L2391 0 L2391 931 L0 931 L0 0 Z"/>
      </clipPath>
      <clipPath clipPathUnits="userSpaceOnUse" id="clipPath2">
        <path d="M-554 -81 L1837 -81 L1837 850 L-554 850 L-554 -81 Z"/>
      </clipPath>
      <clipPath clipPathUnits="userSpaceOnUse" id="clipPath3">
        <path d="M177.8976 -1110.558 L177.8976 255.7277 L-354.1024 255.7277 L-354.1024 -1110.558 L177.8976 -1110.558 Z"/>
      </clipPath>
    </defs>
    <g fill="white" text-rendering="geometricPrecision" shape-rendering="geometricPrecision" transform="translate(554,81)" stroke="white">
      <rect x="-554" width="2391" height="931" y="-81" clip-path="url(#clipPath2)" stroke="none"/>
    </g>
    <g fill="rgb(255,204,0)" text-rendering="geometricPrecision" shape-rendering="geometricPrecision" transform="matrix(1,0,0,1,554,81)" stroke="rgb(255,204,0)">
      <circle r="311" clip-path="url(#clipPath2)" cx="-88.0625" cy="402.5469" stroke="none"/>
    </g>
    <g text-rendering="geometricPrecision" stroke-miterlimit="1.45" shape-rendering="geometricPrecision" transform="matrix(1,0,0,1,554,81)" stroke-linecap="butt">
      <circle fill="none" r="311" clip-path="url(#clipPath2)" cx="-88.0625" cy="402.5469"/>
      <text x="-257.748" font-size="52px" y="310.6637" clip-path="url(#clipPath2)" font-family="sans-serif" stroke="none" xml:space="preserve">ARGUMENTO</text>
    </g>
    <g fill="white" text-rendering="geometricPrecision" shape-rendering="geometricPrecision" transform="matrix(1,0,0,1,554,81)" stroke="white">
      <rect x="-229.3457" width="284.793" height="52.8906" y="358.6078" clip-path="url(#clipPath2)" stroke="none"/>
      <rect x="-229.3457" y="358.6078" clip-path="url(#clipPath2)" fill="none" width="284.793" height="52.8906" stroke="black" stroke-miterlimit="1.6"/>
    </g>
    <g font-size="42px" stroke-linecap="butt" transform="matrix(1,0,0,1,554,81)" text-rendering="geometricPrecision" font-family="sans-serif" shape-rendering="geometricPrecision" stroke-miterlimit="1.45">
      <text x="-227.3457" xml:space="preserve" y="399.5932" clip-path="url(#clipPath2)" stroke="none">CONCLUSIÓN</text>
    </g>
    <g fill="white" text-rendering="geometricPrecision" shape-rendering="geometricPrecision" transform="matrix(1,0,0,1,554,81)" stroke="white">
      <rect x="-229.3003" width="282.4756" height="52.8906" y="425.4503" clip-path="url(#clipPath2)" stroke="none"/>
      <rect x="-229.3003" y="425.4503" clip-path="url(#clipPath2)" fill="none" width="282.4756" height="52.8906" stroke="black" stroke-miterlimit="1.6"/>
    </g>
    <g font-size="42px" stroke-linecap="butt" transform="matrix(1,0,0,1,554,81)" text-rendering="geometricPrecision" font-family="sans-serif" shape-rendering="geometricPrecision" stroke-miterlimit="1.45">
      <text x="-227.3003" xml:space="preserve" y="466.4357" clip-path="url(#clipPath2)" stroke="none">   PREMISAS  </text>
    </g>
    <g transform="matrix(1,0,0,1,554,81)" fill-opacity="0.2078" fill="rgb(255,102,0)" text-rendering="geometricPrecision" shape-rendering="geometricPrecision" stroke="rgb(255,102,0)" stroke-opacity="0.2078">
      <circle r="450" clip-path="url(#clipPath2)" cx="-88.0625" cy="384.9687" stroke="none"/>
    </g>
    <g text-rendering="geometricPrecision" stroke-miterlimit="1.45" shape-rendering="geometricPrecision" transform="matrix(1,0,0,1,554,81)" stroke-linecap="butt">
      <circle fill="none" r="450" clip-path="url(#clipPath2)" cx="-88.0625" cy="384.9687"/>
      <text x="-174.5303" font-size="52px" y="49.4551" clip-path="url(#clipPath2)" font-family="sans-serif" stroke="none" xml:space="preserve">TEXTO</text>
    </g>
    <g fill="white" text-rendering="geometricPrecision" shape-rendering="geometricPrecision" transform="matrix(1,0,0,1,554,81)" stroke="white">
      <rect x="-259.4883" width="368.457" height="64.5312" y="721.2187" clip-path="url(#clipPath2)" stroke="none"/>
      <rect x="-259.4883" y="721.2187" clip-path="url(#clipPath2)" fill="none" width="368.457" height="64.5312" stroke="black" stroke-miterlimit="1.6"/>
    </g>
    <g font-size="52px" stroke-linecap="butt" transform="matrix(1,0,0,1,554,81)" text-rendering="geometricPrecision" font-family="sans-serif" shape-rendering="geometricPrecision" stroke-miterlimit="1.45">
      <text x="-257.4883" xml:space="preserve" y="771.4863" clip-path="url(#clipPath2)" stroke="none">INDICADORES</text>
    </g>
    <g fill="white" text-rendering="geometricPrecision" shape-rendering="geometricPrecision" transform="matrix(1,0,0,1,554,81)" stroke="white">
      <path d="M456.1562 285.9844 L984.2422 285.9844 L1033.7344 384.9688 L984.2422 483.9531 L456.1562 483.9531 Z" stroke="none" clip-path="url(#clipPath2)"/>
    </g>
    <g text-rendering="geometricPrecision" stroke-miterlimit="1.45" shape-rendering="geometricPrecision" transform="matrix(1,0,0,1,554,81)" stroke-linecap="butt">
      <path fill="none" d="M456.1562 285.9844 L984.2422 285.9844 L1033.7344 384.9688 L984.2422 483.9531 L456.1562 483.9531 Z" clip-path="url(#clipPath2)"/>
      <text x="497.3672" font-size="32px" y="396.0469" clip-path="url(#clipPath2)" font-family="sans-serif" stroke="none" xml:space="preserve">COMPRENDER EL ARGUMENTO</text>
    </g>
    <g fill="white" text-rendering="geometricPrecision" shape-rendering="geometricPrecision" transform="matrix(1,0,0,1,554,81)" stroke="white">
      <rect x="1178.7344" y="114.1094" clip-path="url(#clipPath2)" width="421.4844" rx="58.125" ry="58.125" height="116.25" stroke="none"/>
    </g>
    <g text-rendering="geometricPrecision" stroke-miterlimit="1.45" shape-rendering="geometricPrecision" transform="matrix(1,0,0,1,554,81)" stroke-linecap="butt">
      <rect x="1178.7344" y="114.1094" clip-path="url(#clipPath2)" fill="none" width="421.4844" rx="58.125" ry="58.125" height="116.25"/>
      <text x="1249.0801" font-size="42px" y="186.7744" clip-path="url(#clipPath2)" font-family="sans-serif" stroke="none" xml:space="preserve">CONCLUSIÓN</text>
    </g>
    <g fill="white" text-rendering="geometricPrecision" shape-rendering="geometricPrecision" transform="matrix(1,0,0,1,554,81)" stroke="white">
      <rect x="1178.7344" y="506.625" clip-path="url(#clipPath2)" width="421.4844" rx="58.125" ry="58.125" height="116.25" stroke="none"/>
    </g>
    <g text-rendering="geometricPrecision" stroke-miterlimit="1.45" shape-rendering="geometricPrecision" transform="matrix(1,0,0,1,554,81)" stroke-linecap="butt">
      <rect x="1178.7344" y="506.625" clip-path="url(#clipPath2)" fill="none" width="421.4844" rx="58.125" ry="58.125" height="116.25"/>
      <text x="1283.6152" font-size="42px" y="579.29" clip-path="url(#clipPath2)" font-family="sans-serif" stroke="none" xml:space="preserve">PREMISAS</text>
    </g>
    <g fill="red" text-rendering="geometricPrecision" shape-rendering="geometricPrecision" transform="matrix(1,0,0,1,554,81)" stroke="red">
      <rect x="1693.4062" y="513.4961" clip-path="url(#clipPath2)" width="127.8906" rx="51.2539" ry="51.2539" height="102.5078" stroke="none"/>
    </g>
    <g text-rendering="geometricPrecision" stroke-miterlimit="1.45" shape-rendering="geometricPrecision" transform="matrix(1,0,0,1,554,81)" stroke-linecap="butt">
      <rect x="1693.4062" y="513.4961" clip-path="url(#clipPath2)" fill="none" width="127.8906" rx="51.2539" ry="51.2539" height="102.5078"/>
    </g>
    <g fill="red" text-rendering="geometricPrecision" shape-rendering="geometricPrecision" transform="matrix(1,0,0,1,554,81)" stroke="red">
      <rect x="1739.4287" width="35.8457" height="73.8438" y="527.8281" clip-path="url(#clipPath2)" stroke="none"/>
    </g>
    <g font-size="60px" stroke-linecap="butt" transform="matrix(1,0,0,1,554,81)" text-rendering="geometricPrecision" font-family="sans-serif" shape-rendering="geometricPrecision" stroke-miterlimit="1.45">
      <text x="1741.4287" xml:space="preserve" y="585.5215" clip-path="url(#clipPath2)" stroke="none">?</text>
    </g>
    <g fill="red" text-rendering="geometricPrecision" shape-rendering="geometricPrecision" transform="matrix(1,0,0,1,554,81)" stroke="red">
      <rect x="1592.0312" y="317.2383" clip-path="url(#clipPath2)" width="127.8906" rx="51.2539" ry="51.2539" height="102.5078" stroke="none"/>
    </g>
    <g text-rendering="geometricPrecision" stroke-miterlimit="1.45" shape-rendering="geometricPrecision" transform="matrix(1,0,0,1,554,81)" stroke-linecap="butt">
      <rect x="1592.0312" y="317.2383" clip-path="url(#clipPath2)" fill="none" width="127.8906" rx="51.2539" ry="51.2539" height="102.5078"/>
    </g>
    <g fill="red" text-rendering="geometricPrecision" shape-rendering="geometricPrecision" transform="matrix(1,0,0,1,554,81)" stroke="red">
      <rect x="1638.0537" width="35.8457" height="73.8438" y="331.5703" clip-path="url(#clipPath2)" stroke="none"/>
    </g>
    <g font-size="60px" stroke-linecap="butt" transform="matrix(1,0,0,1,554,81)" text-rendering="geometricPrecision" font-family="sans-serif" shape-rendering="geometricPrecision" stroke-miterlimit="1.45">
      <text x="1640.0537" xml:space="preserve" y="389.2637" clip-path="url(#clipPath2)" stroke="none">?</text>
    </g>
    <g text-rendering="geometricPrecision" stroke-miterlimit="1.45" stroke-width="7" shape-rendering="geometricPrecision" transform="matrix(1,0,0,1,554,81)" stroke-linecap="butt">
      <path fill="none" d="M1389.4766 506.6297 L1389.4766 230.3209" clip-path="url(#clipPath2)"/>
      <path fill="white" d="M0 0 L-16 -6 L-16 6 Z" clip-path="url(#clipPath3)" transform="matrix(0,-1.75,1.75,0,1389.4766,230.3209)" stroke="none"/>
      <path fill="none" d="M0 0 L-16 -6 L-16 6 Z" stroke-width="1" clip-path="url(#clipPath3)" transform="matrix(0,-1.75,1.75,0,1389.4766,230.3209)"/>
      <line transform="matrix(0,-1.75,1.75,0,1389.4766,230.3209)" clip-path="url(#clipPath3)" fill="none" x1="-21" x2="-21" y1="-8" y2="8" stroke-width="1"/>
    </g>
  </g>
</svg>
