<?xml version="1.0" encoding="UTF-8"?><svg xmlns="http://www.w3.org/2000/svg" xmlns:xlink="http://www.w3.org/1999/xlink" fill-opacity="1" color-rendering="auto" color-interpolation="auto" text-rendering="auto" stroke="black" stroke-linecap="square" width="652" stroke-miterlimit="10" shape-rendering="auto" stroke-opacity="1" fill="black" stroke-dasharray="none" font-weight="normal" stroke-width="1" height="635" font-family="'Dialog'" font-style="normal" stroke-linejoin="miter" font-size="12px" stroke-dashoffset="0" image-rendering="auto">
  <!--Generated by ySVG 2.5-->
  <defs id="genericDefs"/>
  <g>
    <defs id="defs1">
      <clipPath clipPathUnits="userSpaceOnUse" id="clipPath1">
        <path d="M0 0 L652 0 L652 635 L0 635 L0 0 Z"/>
      </clipPath>
      <clipPath clipPathUnits="userSpaceOnUse" id="clipPath2">
        <path d="M389 -19 L1041 -19 L1041 616 L389 616 L389 -19 Z"/>
      </clipPath>
    </defs>
    <g fill="white" text-rendering="geometricPrecision" shape-rendering="geometricPrecision" transform="translate(-389,19)" stroke="white">
      <rect x="389" width="652" height="635" y="-19" clip-path="url(#clipPath2)" stroke="none"/>
    </g>
    <g fill="rgb(255,204,0)" text-rendering="geometricPrecision" shape-rendering="geometricPrecision" transform="matrix(1,0,0,1,-389,19)" stroke="rgb(255,204,0)">
      <ellipse rx="311" ry="302.5" clip-path="url(#clipPath2)" cx="715" cy="298.5" stroke="none"/>
    </g>
    <g text-rendering="geometricPrecision" stroke-miterlimit="1.45" shape-rendering="geometricPrecision" transform="matrix(1,0,0,1,-389,19)" stroke-linecap="butt">
      <ellipse rx="311" fill="none" ry="302.5" clip-path="url(#clipPath2)" cx="715" cy="298.5"/>
      <text x="545.3145" font-size="52px" y="210.502" clip-path="url(#clipPath2)" font-family="sans-serif" stroke="none" xml:space="preserve">ARGUMENTO</text>
    </g>
    <g fill="white" text-rendering="geometricPrecision" shape-rendering="geometricPrecision" transform="matrix(1,0,0,1,-389,19)" stroke="white">
      <rect x="573.7168" width="284.793" height="52.8906" y="255.0391" clip-path="url(#clipPath2)" stroke="none"/>
      <rect x="573.7168" y="255.0391" clip-path="url(#clipPath2)" fill="none" width="284.793" height="52.8906" stroke="black" stroke-miterlimit="1.6"/>
    </g>
    <g font-size="42px" stroke-linecap="butt" transform="matrix(1,0,0,1,-389,19)" text-rendering="geometricPrecision" font-family="sans-serif" shape-rendering="geometricPrecision" stroke-miterlimit="1.45">
      <text x="575.7168" xml:space="preserve" y="296.0244" clip-path="url(#clipPath2)" stroke="none">CONCLUSIÓN</text>
    </g>
    <g fill="white" text-rendering="geometricPrecision" shape-rendering="geometricPrecision" transform="matrix(1,0,0,1,-389,19)" stroke="white">
      <rect x="573.7622" width="282.4756" height="52.8906" y="320.0547" clip-path="url(#clipPath2)" stroke="none"/>
      <rect x="573.7622" y="320.0547" clip-path="url(#clipPath2)" fill="none" width="282.4756" height="52.8906" stroke="black" stroke-miterlimit="1.6"/>
    </g>
    <g font-size="42px" stroke-linecap="butt" transform="matrix(1,0,0,1,-389,19)" text-rendering="geometricPrecision" font-family="sans-serif" shape-rendering="geometricPrecision" stroke-miterlimit="1.45">
      <text x="575.7622" xml:space="preserve" y="361.04" clip-path="url(#clipPath2)" stroke="none">   PREMISAS  </text>
    </g>
  </g>
</svg>
